<?xml version="1.0" encoding="utf-8"?>
<!-- Generator: Adobe Illustrator 19.0.0, SVG Export Plug-In . SVG Version: 6.00 Build 0)  -->
<svg version="1.1" id="图层_1" xmlns="http://www.w3.org/2000/svg" xmlns:xlink="http://www.w3.org/1999/xlink" x="0px" y="0px"
	 viewBox="80 76 231.7 90" style="enable-background:new 80 76 231.7 90;" xml:space="preserve">
<style type="text/css">
	.st0{fill:#FFFFFF;}
	.st1{fill:#82C76E;enable-background:new    ;}
	.st2{fill:#62CDEF;enable-background:new    ;}
	.st3{fill:#827CBA;enable-background:new    ;}
	.st4{fill:#E559A0;enable-background:new    ;}
	.st5{fill:#F58557;enable-background:new    ;}
</style>
<g>
	<path class="st0" d="M189.3,88.2h64.6v69.4H250v-3.7h-56.8v3.7h-3.9V88.2z M193.3,91.9v58.3H250V91.9H193.3z M200.5,114
		c-1-1.2-1.8-2.1-2.6-2.7c6.2-4.7,11.6-10.3,16-16.7l3.5,1.7c-0.9,1.3-2.1,2.8-3.6,4.6h27.3v3.5c-4.1,4.8-8.7,8.8-14,12.1
		c5.7,2.6,12.3,4.4,19.9,5.5c-0.7,1.2-1.2,2.5-1.7,3.7c-9.1-2-16.4-4.3-21.9-7.1c-6.5,3.5-14.8,6.3-25.1,8.4
		c-0.1-0.1-0.1-0.3-0.3-0.6c-0.5-1.2-1-2.2-1.5-3c8.6-1.3,16.3-3.5,23.2-6.8c-4.1-2.5-7.9-5.6-11.4-9.5
		C205.9,109.4,203.3,111.7,200.5,114z M203.3,139.5l1.1-3.5c10.8,1.5,22.3,3.5,34.4,5.8l-1.2,3.6
		C227.1,143.1,215.7,141.2,203.3,139.5z M236.6,104.2h-25.7l-0.2,0.3c3.5,4.1,7.8,7.4,12.7,10.2
		C228.5,111.7,232.9,108.2,236.6,104.2z M211.1,129.6l1-3.5c7.8,1.2,15,2.5,21.6,3.7l-1.1,3.6C225.6,131.9,218.4,130.7,211.1,129.6z
		"/>
	<path class="st0" d="M289.1,125.8v16.7h-3.4v-16.7H269v-3.4h16.7v-16.7h3.4v16.7h16.7v3.4H289.1z"/>
</g>
<rect x="159.3" y="80.7" class="st1" width="14" height="80.7"/>
<rect x="141" y="106.7" class="st2" width="14" height="54.7"/>
<rect x="122.5" y="100" class="st3" width="14" height="61.3"/>
<rect x="104.8" y="117" class="st4" width="14" height="44.3"/>
<rect x="85.8" y="91" class="st5" width="14" height="70.3"/>
</svg>
